# xmcd
#
# Track frame offsets:
#	150
#	13751
#	26468
#	38031
#	56089
#	65345
#	92715
#	103685
#	118820
#	130709
#	157710
#	167486
#	179466
#	192804
#	203122
#	212672
#
# Disc length: 2978 seconds
#
# Revision: 1
# Processed by: cddbd v1.5.2PL0 Copyright (c) Steve Scherf et al.
# Submitted via: audiograbber 1.83.01
#
DISCID=d00ba010
DTITLE=Jimmy Dean and Dave Dudley - Bumming Around
DYEAR=2004
DGENRE=Country
TTITLE0=Jimmy Dean - Big Bad John
TTITLE1=Jimmy Dean - Bumming Around
TTITLE2=Jimmy Dean - The Cajun Queen
TTITLE3=Jimmy Dean - Dear Ivan
TTITLE4=Jimmy Dean - The First Thing Ev´ry Morning
TTITLE5=Jimmy Dean - IOU
TTITLE6=Jimmy Dean - Little Black Book
TTITLE7=Jimmy Dean - Pt 109
TTITLE8=Jimmy Dean - Stand Beside Me
TTITLE9=Jimmy Dean - Sleeping Beauty
TTITLE10=Dave Dudley - Cowboy Boots
TTITLE11=Dave Dudley - Mad
TTITLE12=Dave Dudley - Thr Pool Shark
TTITLE13=Dave Dudley - Six Days On The Road
TTITLE14=Dave Dudley - Truck Drivin´ Son Of A Gun
TTITLE15=Dave Dudley - What We Are Fighting For
EXTD=
EXTT0=
EXTT1=
EXTT2=
EXTT3=
EXTT4=
EXTT5=
EXTT6=
EXTT7=
EXTT8=
EXTT9=
EXTT10=
EXTT11=
EXTT12=
EXTT13=
EXTT14=
EXTT15=
PLAYORDER=
